<?xml version="1.0" encoding="UTF-8" standalone="no"?><!-- Generator: Gravit.io --><svg xmlns="http://www.w3.org/2000/svg" xmlns:xlink="http://www.w3.org/1999/xlink" style="isolation:isolate" viewBox="0 0 1000 365" width="1000pt" height="365pt"><defs><clipPath id="_clipPath_C7vZvXyGHaf4GK7vUKoUpY8XVcU14id9"><rect width="1000" height="365"/></clipPath></defs><g clip-path="url(#_clipPath_C7vZvXyGHaf4GK7vUKoUpY8XVcU14id9)"><rect width="1000" height="365" style="fill:rgb(0,0,0)" fill-opacity="0"/><g><path d=" M 419.269 206.719 L 398.758 299.24 L 434.15 299.24 L 454.661 206.719 L 419.269 206.719 Z  M 436.341 343 L 471.732 343 L 501.946 206.719 L 466.553 206.719 L 436.341 343 Z  M 543.047 22 L 512.819 158.352 L 536.792 158.352 C 540.665 158.352 544.39 158.791 547.936 159.591 L 578.413 22.117 L 543.047 22 Z  M 616.006 65.829 L 589.658 184.678 L 578.261 184.678 C 574.702 175.551 567.843 168.182 558.943 163.582 L 580.614 65.829 L 616.006 65.829 Z " fill="rgb(248,164,51)"/><path d=" M 964.232 195.132 L 958.652 220.312 C 957.364 219.883 954.217 219.169 950.927 219.169 C 945.488 219.169 940.195 221.03 936.473 224.462 L 927.461 265.957 L 901.705 265.957 L 917.015 196.846 L 942.772 196.846 L 940.911 204.718 C 946.204 199.28 954.217 195.132 964.232 195.132 Z  M 877.377 223.032 L 854.628 223.032 C 855.485 220.029 859.921 214.732 866.79 214.732 C 874.946 214.732 877.377 220.601 877.377 222.604 L 877.377 223.032 Z  M 867.791 195.132 C 843.61 195.132 826.726 214.159 826.726 236.196 C 826.726 256.513 842.18 267.673 864.5 267.673 C 872.798 267.673 882.242 265.814 889.254 261.378 L 881.383 244.638 C 878.237 246.782 871.797 248.073 866.361 248.073 C 856.345 248.073 852.195 240.488 852.195 239.487 L 852.195 239.344 L 898.555 239.344 C 899.269 236.769 900.128 231.33 900.128 226.61 C 900.128 205.575 884.96 195.132 867.791 195.132 Z  M 820.856 213.302 C 820.856 214.447 820.427 217.594 820.142 218.882 L 809.696 265.957 L 783.941 265.957 L 791.954 229.614 C 792.239 228.325 792.811 226.037 792.811 224.318 C 792.811 219.6 788.664 217.881 784.513 217.881 C 778.933 217.881 775.07 220.74 772.352 223.174 L 762.907 265.957 L 737.153 265.957 L 752.463 196.846 L 778.218 196.846 L 776.357 204.718 C 781.364 200.139 787.66 195.132 798.104 195.132 C 812.558 195.132 820.856 202.999 820.856 213.302 Z  M 734.001 213.302 C 734.001 214.447 733.572 217.594 733.287 218.882 L 722.841 265.957 L 697.088 265.957 L 705.099 229.614 C 705.385 228.325 705.959 226.037 705.959 224.318 C 705.959 219.6 701.809 217.881 697.658 217.881 C 692.078 217.881 688.215 220.74 685.497 223.174 L 676.052 265.957 L 650.3 265.957 L 665.608 196.846 L 691.363 196.846 L 689.502 204.718 C 694.512 200.139 700.808 195.132 711.252 195.132 C 725.703 195.132 734.001 202.999 734.001 213.302 Z  M 651.299 196.846 L 635.988 265.957 L 610.233 265.957 L 612.093 258.088 C 607.087 262.667 600.789 267.673 590.344 267.673 C 575.892 267.673 567.594 259.805 567.594 249.503 C 567.594 248.357 568.023 245.208 568.31 243.923 L 578.755 196.846 L 604.51 196.846 L 596.068 235.049 C 595.781 236.34 595.64 237.342 595.64 238.343 C 595.64 243.063 599.787 244.924 604.366 244.924 C 609.518 244.924 613.381 241.92 616.099 239.487 L 625.544 196.846 L 651.299 196.846 Z  M 545.378 233.763 L 554.82 265.957 L 523.057 265.957 L 511.563 211.3 L 520.286 211.3 L 523.458 211.3 L 527.206 211.3 C 534.217 211.3 538.939 208.152 538.939 202.286 C 538.939 197.563 535.648 194.558 530.498 194.558 L 421.963 194.549 L 442.995 99.112 L 515.396 99.112 L 510.101 123.15 L 466.606 123.15 L 464.172 134.311 L 506.669 134.311 L 501.374 158.349 L 458.878 158.349 L 456.158 170.511 L 536.792 170.52 C 554.105 170.52 568.843 181.824 568.843 199.423 C 568.843 216.307 557.825 229.328 545.378 233.763 Z  M 364.44 169.367 L 351.132 169.367 L 361.005 124.295 L 374.312 124.295 C 385.472 124.295 392.913 132.307 392.913 142.466 C 392.913 157.062 382.469 169.367 364.44 169.367 Z  M 379.606 99.112 L 337.683 99.112 L 316.651 194.549 L 359.147 194.549 C 407.509 194.549 422.817 164.502 422.817 140.32 C 422.817 114.995 400.783 99.112 379.606 99.112 Z  M 256.695 158.207 L 275.154 123.15 L 278.445 158.207 L 256.695 158.207 Z  M 260.987 99.112 L 204.755 194.549 L 237.521 194.549 L 243.959 182.245 L 280.447 182.245 L 281.591 194.549 L 311.497 194.549 L 297.33 99.112 L 260.987 99.112 Z  M 206.182 169.367 L 200.602 194.549 L 135.5 194.549 L 156.534 99.112 L 185.437 99.112 L 169.984 169.367 L 206.182 169.367 Z  M 99.299 134.597 L 77.835 134.597 L 80.553 122.578 L 101.157 122.578 C 105.163 122.578 106.737 125.155 106.737 127.729 C 106.737 130.735 105.163 134.597 99.299 134.597 Z  M 92.144 171.085 L 69.821 171.085 L 72.684 158.064 L 95.004 158.064 C 98.726 158.064 100.871 160.782 100.871 163.929 C 100.871 167.936 97.438 171.085 92.144 171.085 Z  M 116.039 147.188 C 127.342 146.187 137.499 135.027 137.499 122.865 C 137.499 111.418 129.202 99.112 109.886 99.112 L 56.803 99.112 L 35.768 194.549 L 95.722 194.549 C 120.904 194.549 129.63 178.667 129.63 166.076 C 129.63 158.064 125.338 149.764 116.039 147.188 Z " fill="rgb(254,254,254)"/></g></g></svg>