<?xml version="1.0" encoding="UTF-8" standalone="no"?><!-- Generator: Gravit.io --><svg xmlns="http://www.w3.org/2000/svg" xmlns:xlink="http://www.w3.org/1999/xlink" style="isolation:isolate" viewBox="0 0 260 90" width="260pt" height="90pt"><defs><clipPath id="_clipPath_kNYuCzfUYPok9jmw1hRzMUv8o79PYfq4"><rect x="0" y="0" width="260" height="90"/></clipPath></defs><g clip-path="url(#_clipPath_kNYuCzfUYPok9jmw1hRzMUv8o79PYfq4)"><path d="M 10 1 L 250 1 C 254.967 1 259 5.033 259 10 L 259 80 C 259 84.967 254.967 89 250 89 L 10 89 C 5.033 89 1 84.967 1 80 L 1 10 C 1 5.033 5.033 1 10 1 Z" style="fill:none;stroke:#FB8E03;stroke-width:2;stroke-miterlimit:2;"/><g><rect x="41" y="35" width="40" height="19" transform="matrix(1,0,0,1,0,0)" fill="rgb(251,142,3)"/><path d=" M 82 20.21 L 82 69.79 C 82.03 71.6 81.44 73.37 80.32 74.8 C 79.8 75.46 79.15 76 78.42 76.4 C 77.67 76.79 76.84 77 76 77 C 76 77 76 77 76 77 L 46 77 C 46 77 46 77 46 77 C 45.16 77 44.33 76.79 43.58 76.4 C 42.85 76 42.2 75.46 41.68 74.8 C 40.56 73.37 39.97 71.6 40 69.79 L 40 20.21 C 39.97 18.4 40.56 16.63 41.68 15.2 C 42.2 14.54 42.85 14 43.58 13.6 C 44.33 13.21 45.16 13 46 13 C 46 13 46 13 46 13 L 76 13 C 76 13 76 13 76 13 C 76.84 13 77.67 13.21 78.42 13.6 C 79.15 14 79.8 14.54 80.32 15.2 C 81.44 16.63 82.03 18.4 82 20.21 Z  M 80 20.2 L 80 69.8 C 80 69.81 80 69.81 80 69.82 C 80.02 71.17 79.58 72.5 78.75 73.57 C 78.4 74 77.97 74.37 77.48 74.63 C 77.02 74.87 76.51 75 76 75 L 46 75 C 45.49 75 44.98 74.87 44.52 74.63 C 44.03 74.37 43.6 74 43.25 73.57 C 42.42 72.5 41.98 71.17 42 69.82 C 42 69.81 42 69.81 42 69.8 L 42 20.2 C 42 20.19 42 20.19 42 20.18 C 41.98 18.83 42.42 17.5 43.25 16.43 C 43.6 16 44.03 15.63 44.52 15.37 C 44.98 15.13 45.49 15 46 15 L 76 15 C 76.51 15 77.02 15.13 77.48 15.37 C 77.97 15.63 78.4 16 78.75 16.43 C 79.58 17.5 80.02 18.83 80 20.18 C 80 20.19 80 20.19 80 20.2 Z " fill-rule="evenodd" fill="rgb(251,142,3)"/></g><g><path d=" M 23.317 38.65 C 23.181 38.922 22.972 39.15 22.714 39.31 C 22.456 39.47 22.158 39.554 21.855 39.554 L 19.634 39.554 C 19.419 39.554 19.206 39.512 19.008 39.43 C 18.809 39.347 18.629 39.227 18.477 39.075 C 18.325 38.922 18.205 38.742 18.123 38.543 C 18.041 38.344 17.999 38.131 18 37.916 L 18 21.12 C 18 20.905 18.042 20.693 18.124 20.495 C 18.206 20.296 18.326 20.116 18.478 19.965 C 18.63 19.813 18.81 19.693 19.008 19.611 C 19.206 19.529 19.419 19.486 19.633 19.487 L 21.854 19.487 C 22.157 19.486 22.455 19.57 22.713 19.73 C 22.971 19.889 23.18 20.118 23.316 20.389 L 24.827 23.41 C 24.94 23.637 25 23.887 25 24.141 L 25 34.9 C 25 35.153 24.94 35.403 24.827 35.629 L 23.317 38.65 Z  M 22.063 38.027 L 23.573 35.008 C 23.591 34.973 23.6 34.935 23.6 34.897 L 23.6 24.141 C 23.599 24.104 23.591 24.069 23.574 24.036 L 22.065 21.014 C 22.045 20.976 22.015 20.944 21.978 20.921 C 21.941 20.899 21.899 20.887 21.856 20.887 L 19.635 20.887 C 19.574 20.887 19.514 20.911 19.471 20.955 C 19.427 20.999 19.402 21.058 19.402 21.12 L 19.402 37.916 C 19.402 37.978 19.427 38.037 19.471 38.081 C 19.514 38.125 19.574 38.15 19.635 38.15 L 21.856 38.15 C 21.899 38.15 21.941 38.137 21.978 38.115 C 22.015 38.092 22.044 38.059 22.063 38.021 L 22.063 38.027 Z " fill-rule="evenodd" fill="rgb(251,142,3)"/><path d=" M 22.199 24.854 L 22.199 34.186 C 22.192 34.367 22.115 34.538 21.984 34.663 C 21.854 34.789 21.68 34.859 21.499 34.859 C 21.318 34.859 21.144 34.789 21.014 34.663 C 20.883 34.538 20.806 34.367 20.799 34.186 L 20.799 24.854 C 20.795 24.759 20.811 24.665 20.844 24.577 C 20.878 24.489 20.929 24.408 20.994 24.34 C 21.059 24.272 21.138 24.218 21.225 24.181 C 21.311 24.144 21.405 24.125 21.499 24.125 C 21.593 24.125 21.687 24.144 21.774 24.181 C 21.86 24.218 21.939 24.272 22.004 24.34 C 22.07 24.408 22.12 24.489 22.154 24.577 C 22.187 24.665 22.203 24.759 22.199 24.854 Z " fill-rule="evenodd" fill="rgb(255,255,255)"/><path d=" M 21.5 71.11 C 20.57 71.11 19.68 70.74 19.02 70.09 C 18.36 69.43 18 68.54 18 67.61 C 18 67.61 18 67.61 18 67.61 L 18 54.71 C 18 54.71 18 54.71 18 54.71 C 18 53.78 18.36 52.89 19.02 52.23 C 19.68 51.57 20.57 51.2 21.5 51.21 C 22.43 51.2 23.32 51.57 23.98 52.23 C 24.63 52.89 25 53.78 25 54.71 C 25 54.71 25 54.71 25 54.71 L 25 67.61 C 25 67.61 25 67.61 25 67.61 C 25 68.54 24.63 69.43 23.98 70.09 C 23.32 70.74 22.43 71.11 21.5 71.11 Z  M 21.5 69.91 C 20.89 69.91 20.3 69.67 19.87 69.24 C 19.44 68.81 19.2 68.22 19.2 67.61 L 19.2 54.71 C 19.2 54.1 19.44 53.51 19.87 53.08 C 20.3 52.65 20.89 52.4 21.5 52.41 C 22.11 52.4 22.7 52.65 23.13 53.08 C 23.56 53.51 23.8 54.1 23.8 54.71 L 23.8 67.61 C 23.8 68.22 23.56 68.81 23.13 69.24 C 22.7 69.67 22.11 69.91 21.5 69.91 Z " fill-rule="evenodd" fill="rgb(251,142,3)"/><path d=" M 22.254 55.295 L 22.254 67.024 C 22.275 67.233 22.214 67.442 22.083 67.606 C 21.952 67.77 21.762 67.877 21.554 67.904 C 21.346 67.877 21.156 67.77 21.025 67.606 C 20.894 67.442 20.833 67.233 20.853 67.024 L 20.853 55.295 C 20.833 55.086 20.894 54.877 21.025 54.713 C 21.156 54.548 21.346 54.442 21.554 54.415 C 21.762 54.442 21.952 54.548 22.083 54.713 C 22.214 54.877 22.275 55.086 22.254 55.295 Z " fill-rule="evenodd" fill="rgb(255,255,255)"/></g><g><path d=" M 238.157 14 L 185.843 14 C 184.559 14 183.327 14.51 182.419 15.419 C 181.51 16.327 181 17.559 181 18.843 L 181 71.157 C 181 72.441 181.51 73.673 182.419 74.581 C 183.327 75.49 184.559 76 185.843 76 L 238.157 76 C 239.441 76 240.673 75.49 241.581 74.581 C 242.49 73.673 243 72.441 243 71.157 L 243 18.843 C 243 17.559 242.49 16.327 241.581 15.419 C 240.673 14.51 239.441 14 238.157 14 Z  M 235.735 18.844 C 236.214 18.844 236.682 18.986 237.08 19.253 C 237.479 19.519 237.789 19.897 237.972 20.339 C 238.155 20.782 238.203 21.269 238.11 21.739 C 238.017 22.208 237.786 22.64 237.447 22.979 C 237.109 23.317 236.677 23.548 236.207 23.641 C 235.738 23.735 235.251 23.687 234.808 23.503 C 234.366 23.32 233.987 23.01 233.721 22.612 C 233.455 22.213 233.313 21.745 233.313 21.266 C 233.313 20.624 233.569 20.008 234.023 19.554 C 234.477 19.1 235.093 18.845 235.735 18.844 Z  M 188.262 18.844 C 188.741 18.844 189.21 18.985 189.608 19.251 C 190.007 19.517 190.318 19.895 190.502 20.337 C 190.685 20.78 190.734 21.267 190.641 21.737 C 190.548 22.207 190.317 22.638 189.979 22.977 C 189.64 23.316 189.209 23.547 188.739 23.641 C 188.269 23.735 187.782 23.687 187.339 23.504 C 186.896 23.321 186.518 23.01 186.252 22.612 C 185.986 22.214 185.843 21.745 185.843 21.266 C 185.844 20.624 186.099 20.008 186.553 19.554 C 187.008 19.1 187.624 18.844 188.266 18.844 L 188.262 18.844 Z  M 188.262 71.158 C 187.783 71.158 187.315 71.015 186.917 70.749 C 186.518 70.483 186.208 70.105 186.025 69.663 C 185.841 69.22 185.794 68.733 185.887 68.263 C 185.98 67.794 186.211 67.362 186.55 67.023 C 186.888 66.685 187.32 66.454 187.79 66.361 C 188.259 66.267 188.746 66.315 189.189 66.499 C 189.631 66.682 190.01 66.992 190.276 67.39 C 190.542 67.789 190.684 68.257 190.684 68.736 C 190.683 69.377 190.428 69.993 189.975 70.446 C 189.522 70.9 188.907 71.155 188.265 71.157 L 188.262 71.158 Z  M 211.854 71.3 C 206.653 71.299 201.569 69.756 197.244 66.866 C 192.92 63.976 189.549 59.868 187.559 55.063 C 185.569 50.257 185.049 44.969 186.064 39.868 C 187.079 34.767 189.584 30.081 193.262 26.403 C 196.94 22.725 201.626 20.221 206.728 19.206 C 211.829 18.192 217.117 18.713 221.922 20.703 C 226.728 22.694 230.835 26.065 233.725 30.39 C 236.614 34.715 238.157 39.799 238.157 45 C 238.149 51.973 235.375 58.658 230.445 63.588 C 225.515 68.519 218.83 71.292 211.857 71.3 L 211.854 71.3 Z  M 235.732 71.158 C 235.253 71.158 234.785 71.015 234.386 70.749 C 233.988 70.483 233.678 70.105 233.494 69.663 C 233.311 69.22 233.263 68.733 233.357 68.263 C 233.45 67.794 233.681 67.362 234.02 67.023 C 234.358 66.685 234.79 66.454 235.259 66.361 C 235.729 66.267 236.216 66.315 236.659 66.499 C 237.101 66.682 237.479 66.992 237.745 67.39 C 238.012 67.789 238.154 68.257 238.154 68.736 C 238.153 69.377 237.898 69.993 237.445 70.446 C 236.991 70.9 236.376 71.155 235.735 71.157 L 235.732 71.158 Z " fill="rgb(251,142,3)"/><path d=" M 221.428 33.713 L 223.915 33.123 C 224.236 33.042 224.533 32.886 224.78 32.666 C 225.028 32.447 225.219 32.171 225.337 31.862 C 225.455 31.561 225.498 31.236 225.463 30.915 C 225.427 30.594 225.313 30.286 225.132 30.019 C 222.161 25.725 215.444 22.335 209.773 24.368 C 208.953 24.672 208.213 25.158 207.607 25.788 C 207.002 26.418 206.546 27.178 206.276 28.009 C 205.068 31.622 205.569 36.014 207.653 40.522 C 208.716 39.59 210.064 39.046 211.477 38.981 C 212.889 38.916 214.282 39.333 215.426 40.164 C 215.999 38.82 216.704 37.535 217.529 36.328 C 218.468 35.012 219.854 34.083 221.429 33.716 L 221.428 33.713 Z " fill="rgb(255,255,255)"/><path d=" M 198.714 51.371 C 201.606 51.306 204.449 50.617 207.05 49.35 C 206.117 48.287 205.574 46.938 205.509 45.526 C 205.444 44.113 205.861 42.721 206.692 41.577 C 205.35 41.003 204.068 40.299 202.865 39.473 C 201.549 38.534 200.62 37.148 200.253 35.574 L 199.652 33.087 C 199.573 32.765 199.417 32.467 199.197 32.219 C 198.978 31.972 198.701 31.781 198.391 31.665 C 198.09 31.549 197.765 31.507 197.444 31.543 C 197.124 31.578 196.816 31.691 196.548 31.87 C 192.26 34.84 188.879 41.558 190.902 47.229 C 191.208 48.05 191.695 48.79 192.327 49.396 C 192.959 50.001 193.719 50.456 194.552 50.727 C 195.896 51.162 197.301 51.379 198.714 51.371 Z " fill="rgb(255,255,255)"/><path d=" M 211.767 51.494 C 210.452 51.493 209.172 51.077 208.108 50.304 C 207.533 51.645 206.829 52.927 206.005 54.132 C 205.064 55.448 203.679 56.379 202.105 56.753 L 199.618 57.343 C 199.297 57.423 199 57.579 198.753 57.799 C 198.505 58.018 198.314 58.294 198.196 58.604 C 198.082 58.906 198.042 59.231 198.079 59.551 C 198.116 59.872 198.23 60.179 198.41 60.446 C 199.769 62.317 201.537 63.853 203.579 64.937 C 205.621 66.022 207.883 66.626 210.194 66.703 C 211.412 66.708 212.622 66.505 213.771 66.102 C 214.589 65.795 215.328 65.307 215.931 64.675 C 216.535 64.043 216.989 63.284 217.259 62.453 C 218.467 58.847 217.974 54.456 215.891 49.939 C 214.751 50.941 213.286 51.494 211.768 51.496 L 211.767 51.494 Z " fill="rgb(255,255,255)"/><path d=" M 228.994 39.741 C 225.381 38.524 220.989 39.026 216.475 41.118 C 217.411 42.179 217.958 43.527 218.025 44.94 C 218.091 46.353 217.674 47.747 216.842 48.891 C 218.187 49.465 219.472 50.169 220.679 50.994 C 221.995 51.933 222.923 53.32 223.291 54.894 L 223.881 57.381 C 223.962 57.701 224.119 57.998 224.339 58.245 C 224.558 58.492 224.833 58.684 225.141 58.803 C 225.373 58.892 225.618 58.938 225.866 58.937 C 226.265 58.939 226.655 58.817 226.983 58.589 C 231.277 55.628 234.667 48.911 232.636 43.231 C 232.33 42.413 231.844 41.674 231.214 41.07 C 230.583 40.466 229.825 40.011 228.994 39.741 Z " fill="rgb(255,255,255)"/><path d=" M 211.806 49.212 C 214.019 49.212 215.812 47.419 215.812 45.206 C 215.812 42.994 214.019 41.2 211.806 41.2 C 209.594 41.2 207.8 42.994 207.8 45.206 C 207.8 47.419 209.594 49.212 211.806 49.212 Z " fill="rgb(255,255,255)"/></g><g><path d=" M 158.157 14 L 105.843 14 C 104.559 14 103.327 14.51 102.419 15.419 C 101.51 16.327 101 17.559 101 18.843 L 101 71.157 C 101 72.441 101.51 73.673 102.419 74.581 C 103.327 75.49 104.559 76 105.843 76 L 158.157 76 C 159.441 76 160.673 75.49 161.581 74.581 C 162.49 73.673 163 72.441 163 71.157 L 163 18.843 C 163 17.559 162.49 16.327 161.581 15.419 C 160.673 14.51 159.441 14 158.157 14 Z  M 155.735 18.844 C 156.214 18.844 156.682 18.986 157.08 19.253 C 157.479 19.519 157.789 19.897 157.972 20.339 C 158.155 20.782 158.203 21.269 158.11 21.739 C 158.017 22.208 157.786 22.64 157.447 22.979 C 157.109 23.317 156.677 23.548 156.207 23.641 C 155.738 23.735 155.251 23.687 154.808 23.503 C 154.366 23.32 153.987 23.01 153.721 22.612 C 153.455 22.213 153.313 21.745 153.313 21.266 C 153.313 20.624 153.569 20.008 154.023 19.554 C 154.477 19.1 155.093 18.845 155.735 18.844 Z  M 108.262 18.844 C 108.741 18.844 109.21 18.985 109.608 19.251 C 110.007 19.517 110.318 19.895 110.502 20.337 C 110.685 20.78 110.734 21.267 110.641 21.737 C 110.548 22.207 110.317 22.638 109.979 22.977 C 109.64 23.316 109.209 23.547 108.739 23.641 C 108.269 23.735 107.782 23.687 107.339 23.504 C 106.896 23.321 106.518 23.01 106.252 22.612 C 105.986 22.214 105.843 21.745 105.843 21.266 C 105.844 20.624 106.099 20.008 106.553 19.554 C 107.008 19.1 107.624 18.844 108.266 18.844 L 108.262 18.844 Z  M 108.262 71.158 C 107.783 71.158 107.315 71.015 106.917 70.749 C 106.518 70.483 106.208 70.105 106.025 69.663 C 105.841 69.22 105.794 68.733 105.887 68.263 C 105.98 67.794 106.211 67.362 106.55 67.023 C 106.888 66.685 107.32 66.454 107.79 66.361 C 108.259 66.267 108.746 66.315 109.189 66.499 C 109.631 66.682 110.01 66.992 110.276 67.39 C 110.542 67.789 110.684 68.257 110.684 68.736 C 110.683 69.377 110.428 69.993 109.975 70.446 C 109.522 70.9 108.907 71.155 108.265 71.157 L 108.262 71.158 Z  M 131.854 71.3 C 126.653 71.299 121.569 69.756 117.244 66.866 C 112.92 63.976 109.549 59.868 107.559 55.063 C 105.569 50.257 105.049 44.969 106.064 39.868 C 107.079 34.767 109.584 30.081 113.262 26.403 C 116.94 22.725 121.626 20.221 126.728 19.206 C 131.829 18.192 137.117 18.713 141.922 20.703 C 146.728 22.694 150.835 26.065 153.725 30.39 C 156.614 34.715 158.157 39.799 158.157 45 C 158.149 51.973 155.375 58.658 150.445 63.588 C 145.515 68.519 138.83 71.292 131.857 71.3 L 131.854 71.3 Z  M 155.732 71.158 C 155.253 71.158 154.785 71.015 154.386 70.749 C 153.988 70.483 153.678 70.105 153.494 69.663 C 153.311 69.22 153.263 68.733 153.357 68.263 C 153.45 67.794 153.681 67.362 154.02 67.023 C 154.358 66.685 154.79 66.454 155.259 66.361 C 155.729 66.267 156.216 66.315 156.659 66.499 C 157.101 66.682 157.479 66.992 157.745 67.39 C 158.012 67.789 158.154 68.257 158.154 68.736 C 158.153 69.377 157.898 69.993 157.445 70.446 C 156.991 70.9 156.376 71.155 155.735 71.157 L 155.732 71.158 Z " fill="rgb(251,142,3)"/><path d=" M 141.428 33.713 L 143.915 33.123 C 144.236 33.042 144.533 32.886 144.78 32.666 C 145.028 32.447 145.219 32.171 145.337 31.862 C 145.455 31.561 145.498 31.236 145.463 30.915 C 145.427 30.594 145.313 30.286 145.132 30.019 C 142.161 25.725 135.444 22.335 129.773 24.368 C 128.953 24.672 128.213 25.158 127.607 25.788 C 127.002 26.418 126.546 27.178 126.276 28.009 C 125.068 31.622 125.569 36.014 127.653 40.522 C 128.716 39.59 130.064 39.046 131.477 38.981 C 132.889 38.916 134.282 39.333 135.426 40.164 C 135.999 38.82 136.704 37.535 137.529 36.328 C 138.468 35.012 139.854 34.083 141.429 33.716 L 141.428 33.713 Z " fill="rgb(255,255,255)"/><path d=" M 118.714 51.371 C 121.606 51.306 124.449 50.617 127.05 49.35 C 126.117 48.287 125.574 46.938 125.509 45.526 C 125.444 44.113 125.861 42.721 126.692 41.577 C 125.35 41.003 124.068 40.299 122.865 39.473 C 121.549 38.534 120.62 37.148 120.253 35.574 L 119.652 33.087 C 119.573 32.765 119.417 32.467 119.197 32.219 C 118.978 31.972 118.701 31.781 118.391 31.665 C 118.09 31.549 117.765 31.507 117.444 31.543 C 117.124 31.578 116.816 31.691 116.548 31.87 C 112.26 34.84 108.879 41.558 110.902 47.229 C 111.208 48.05 111.695 48.79 112.327 49.396 C 112.959 50.001 113.719 50.456 114.552 50.727 C 115.896 51.162 117.301 51.379 118.714 51.371 Z " fill="rgb(255,255,255)"/><path d=" M 131.767 51.494 C 130.452 51.493 129.172 51.077 128.108 50.304 C 127.533 51.645 126.829 52.927 126.005 54.132 C 125.064 55.448 123.679 56.379 122.105 56.753 L 119.618 57.343 C 119.297 57.423 119 57.579 118.753 57.799 C 118.505 58.018 118.314 58.294 118.196 58.604 C 118.082 58.906 118.042 59.231 118.079 59.551 C 118.116 59.872 118.23 60.179 118.41 60.446 C 119.769 62.317 121.537 63.853 123.579 64.937 C 125.621 66.022 127.883 66.626 130.194 66.703 C 131.412 66.708 132.622 66.505 133.771 66.102 C 134.589 65.795 135.328 65.307 135.931 64.675 C 136.535 64.043 136.989 63.284 137.259 62.453 C 138.467 58.847 137.974 54.456 135.891 49.939 C 134.751 50.941 133.286 51.494 131.768 51.496 L 131.767 51.494 Z " fill="rgb(255,255,255)"/><path d=" M 148.994 39.741 C 145.381 38.524 140.989 39.026 136.475 41.118 C 137.411 42.179 137.958 43.527 138.025 44.94 C 138.091 46.353 137.674 47.747 136.842 48.891 C 138.187 49.465 139.472 50.169 140.679 50.994 C 141.995 51.933 142.923 53.32 143.291 54.894 L 143.881 57.381 C 143.962 57.701 144.119 57.998 144.339 58.245 C 144.558 58.492 144.833 58.684 145.141 58.803 C 145.373 58.892 145.618 58.938 145.866 58.937 C 146.265 58.939 146.655 58.817 146.983 58.589 C 151.277 55.628 154.667 48.911 152.636 43.231 C 152.33 42.413 151.844 41.674 151.214 41.07 C 150.583 40.466 149.825 40.011 148.994 39.741 Z " fill="rgb(255,255,255)"/><path d=" M 131.806 49.212 C 134.019 49.212 135.812 47.419 135.812 45.206 C 135.812 42.994 134.019 41.2 131.806 41.2 C 129.594 41.2 127.8 42.994 127.8 45.206 C 127.8 47.419 129.594 49.212 131.806 49.212 Z " fill="rgb(255,255,255)"/></g></g></svg>