<?xml version="1.0" encoding="UTF-8" standalone="no"?>
<!-- Generator: Gravit.io -->
<svg xmlns="http://www.w3.org/2000/svg" xmlns:xlink="http://www.w3.org/1999/xlink" style="isolation:isolate" viewBox="0 0.5 260 90" width="260pt" height="90pt"><path d="M 10 1.5 L 250 1.5 C 254.967 1.5 259 5.533 259 10.5 L 259 80.5 C 259 85.467 254.967 89.5 250 89.5 L 10 89.5 C 5.033 89.5 1 85.467 1 80.5 L 1 10.5 C 1 5.533 5.033 1.5 10 1.5 Z" style="fill:none;stroke:#FB8E03;stroke-width:2;stroke-miterlimit:2;"/><path d=" M 77.527 51 L 116.469 51 C 117.313 51 117.999 51.686 117.999 52.53 L 117.999 74.97 C 117.999 75.814 117.313 76.5 116.469 76.5 L 77.527 76.5 C 76.682 76.5 75.997 75.814 75.997 74.97 L 75.997 52.53 C 75.997 51.686 76.682 51 77.527 51 Z  M 116 74.5 L 78 74.5 L 78 53 L 116 53 L 116 74.5 Z " fill-rule="evenodd" fill="rgb(250,142,2)"/><path d=" M 125.528 51 L 164.47 51 C 165.314 51 166 51.686 166 52.53 L 166 74.97 C 166 75.814 165.314 76.5 164.47 76.5 L 125.528 76.5 C 124.683 76.5 123.998 75.814 123.998 74.97 L 123.998 52.53 C 123.998 51.686 124.683 51 125.528 51 Z  M 164 74.5 L 126 74.5 L 126 53 L 164 53 L 164 74.5 Z " fill-rule="evenodd" fill="rgb(250,142,2)"/><g><g><g><g><path d=" M 49.367 62.578 L 26.15 62.578 C 25.58 62.578 25.033 62.351 24.63 61.948 C 24.226 61.545 24 60.998 24 60.428 L 24 37.211 C 24 36.64 24.226 36.094 24.63 35.69 C 25.033 35.287 25.58 35.061 26.15 35.061 L 49.367 35.061 C 49.937 35.061 50.484 35.287 50.887 35.69 C 51.29 36.094 51.517 36.64 51.517 37.211 L 51.517 60.428 C 51.517 60.998 51.29 61.545 50.887 61.948 C 50.484 62.351 49.937 62.578 49.367 62.578 Z  M 26.102 59.181 C 26.103 59.524 26.24 59.853 26.483 60.096 C 26.726 60.339 27.056 60.475 27.399 60.476 L 48.12 60.476 C 48.463 60.475 48.792 60.338 49.035 60.095 C 49.277 59.853 49.414 59.524 49.415 59.181 L 49.415 45.491 C 49.414 45.148 49.277 44.819 49.034 44.576 C 48.792 44.333 48.463 44.197 48.12 44.196 L 46.255 44.196 L 46.255 41.968 C 46.254 41.624 46.117 41.296 45.874 41.053 C 45.631 40.81 45.302 40.674 44.959 40.673 L 43.314 40.673 L 43.314 38.46 C 43.313 38.116 43.176 37.788 42.933 37.545 C 42.691 37.302 42.362 37.165 42.019 37.164 L 33.368 37.164 C 33.025 37.165 32.696 37.302 32.453 37.545 C 32.21 37.788 32.074 38.116 32.073 38.46 L 32.073 40.673 L 30.428 40.673 C 30.085 40.674 29.756 40.811 29.514 41.054 C 29.271 41.296 29.135 41.625 29.134 41.968 L 29.134 44.196 L 27.399 44.196 C 27.056 44.196 26.727 44.333 26.484 44.576 C 26.241 44.819 26.105 45.147 26.104 45.491 L 26.104 59.181 L 26.102 59.181 Z " fill-rule="evenodd" fill="rgb(251,142,3)"/><path d=" M 30.418 53.608 L 30.418 57.019 C 30.418 57.241 30.33 57.454 30.173 57.61 C 30.016 57.767 29.803 57.856 29.581 57.856 C 29.359 57.856 29.147 57.767 28.99 57.61 C 28.833 57.454 28.744 57.241 28.744 57.019 L 28.744 53.608 C 28.744 53.386 28.833 53.173 28.99 53.016 C 29.147 52.86 29.359 52.771 29.581 52.771 C 29.803 52.771 30.016 52.86 30.173 53.016 C 30.33 53.173 30.418 53.386 30.418 53.608 Z  M 33.664 53.608 L 33.664 57.019 C 33.664 57.241 33.576 57.454 33.419 57.61 C 33.262 57.767 33.049 57.856 32.827 57.856 C 32.605 57.856 32.392 57.767 32.235 57.61 C 32.078 57.454 31.99 57.241 31.99 57.019 L 31.99 53.608 C 31.99 53.386 32.078 53.173 32.235 53.016 C 32.392 52.86 32.605 52.771 32.827 52.771 C 33.049 52.771 33.262 52.86 33.419 53.016 C 33.576 53.173 33.664 53.386 33.664 53.608 Z  M 36.909 53.608 L 36.909 57.019 C 36.909 57.241 36.821 57.454 36.664 57.61 C 36.507 57.767 36.294 57.856 36.072 57.856 C 35.85 57.856 35.637 57.767 35.48 57.61 C 35.323 57.454 35.235 57.241 35.235 57.019 L 35.235 53.608 C 35.235 53.386 35.323 53.173 35.48 53.016 C 35.637 52.86 35.85 52.771 36.072 52.771 C 36.294 52.771 36.507 52.86 36.664 53.016 C 36.821 53.173 36.909 53.386 36.909 53.608 Z  M 40.154 53.608 L 40.154 57.019 C 40.154 57.241 40.066 57.454 39.909 57.61 C 39.752 57.767 39.539 57.856 39.317 57.856 C 39.095 57.856 38.882 57.767 38.725 57.61 C 38.568 57.454 38.48 57.241 38.48 57.019 L 38.48 53.608 C 38.48 53.386 38.568 53.173 38.725 53.016 C 38.882 52.86 39.095 52.771 39.317 52.771 C 39.539 52.771 39.752 52.86 39.909 53.016 C 40.066 53.173 40.154 53.386 40.154 53.608 Z  M 43.399 53.608 L 43.399 57.019 C 43.399 57.241 43.311 57.454 43.154 57.61 C 42.997 57.767 42.784 57.856 42.562 57.856 C 42.34 57.856 42.128 57.767 41.971 57.61 C 41.814 57.454 41.725 57.241 41.725 57.019 L 41.725 53.608 C 41.725 53.386 41.814 53.173 41.971 53.016 C 42.128 52.86 42.34 52.771 42.562 52.771 C 42.784 52.771 42.997 52.86 43.154 53.016 C 43.311 53.173 43.399 53.386 43.399 53.608 Z  M 46.645 53.608 L 46.645 57.019 C 46.645 57.241 46.557 57.454 46.4 57.61 C 46.243 57.767 46.03 57.856 45.808 57.856 C 45.586 57.856 45.373 57.767 45.216 57.61 C 45.059 57.454 44.971 57.241 44.971 57.019 L 44.971 53.608 C 44.971 53.386 45.059 53.173 45.216 53.016 C 45.373 52.86 45.586 52.771 45.808 52.771 C 46.03 52.771 46.243 52.86 46.4 53.016 C 46.557 53.173 46.645 53.386 46.645 53.608 Z " fill="rgb(255,255,255)"/></g></g></g><g><path d=" M 25.32 65.372 L 50.681 65.372 C 51.41 65.372 52.001 65.964 52.001 66.692 L 52.001 75.052 C 52.001 75.781 51.41 76.372 50.681 76.372 L 25.32 76.372 C 24.591 76.372 24 75.781 24 75.052 L 24 66.692 C 24 65.964 24.591 65.372 25.32 65.372 Z  M 50 74.37 L 26 74.37 L 26 67.37 L 50 67.37 L 50 74.37 Z " fill-rule="evenodd" fill="rgb(250,142,2)"/><rect x="27.517" y="68.654" width="21" height="2.718" transform="matrix(1,0,0,1,0,0)" fill="rgb(255,255,255)"/></g></g><g><path d=" M 238.157 14.5 L 185.843 14.5 C 184.559 14.5 183.327 15.01 182.419 15.919 C 181.51 16.827 181 18.059 181 19.343 L 181 71.657 C 181 72.941 181.51 74.173 182.419 75.081 C 183.327 75.99 184.559 76.5 185.843 76.5 L 238.157 76.5 C 239.441 76.5 240.673 75.99 241.581 75.081 C 242.49 74.173 243 72.941 243 71.657 L 243 19.343 C 243 18.059 242.49 16.827 241.581 15.919 C 240.673 15.01 239.441 14.5 238.157 14.5 Z  M 235.735 19.344 C 236.214 19.344 236.682 19.486 237.08 19.753 C 237.479 20.019 237.789 20.397 237.972 20.839 C 238.155 21.282 238.203 21.769 238.11 22.239 C 238.017 22.708 237.786 23.14 237.447 23.479 C 237.109 23.817 236.677 24.048 236.207 24.141 C 235.738 24.235 235.251 24.187 234.808 24.003 C 234.366 23.82 233.987 23.51 233.721 23.112 C 233.455 22.713 233.313 22.245 233.313 21.766 C 233.313 21.124 233.569 20.508 234.023 20.054 C 234.477 19.6 235.093 19.345 235.735 19.344 Z  M 188.262 19.344 C 188.741 19.344 189.21 19.485 189.608 19.751 C 190.007 20.017 190.318 20.395 190.502 20.837 C 190.685 21.28 190.734 21.767 190.641 22.237 C 190.548 22.707 190.317 23.138 189.979 23.477 C 189.64 23.816 189.209 24.047 188.739 24.141 C 188.269 24.235 187.782 24.187 187.339 24.004 C 186.896 23.821 186.518 23.51 186.252 23.112 C 185.986 22.714 185.843 22.245 185.843 21.766 C 185.844 21.124 186.099 20.508 186.553 20.054 C 187.008 19.6 187.624 19.344 188.266 19.344 L 188.262 19.344 Z  M 188.262 71.658 C 187.783 71.658 187.315 71.515 186.917 71.249 C 186.518 70.983 186.208 70.605 186.025 70.163 C 185.841 69.72 185.794 69.233 185.887 68.763 C 185.98 68.294 186.211 67.862 186.55 67.523 C 186.888 67.185 187.32 66.954 187.79 66.861 C 188.259 66.767 188.746 66.815 189.189 66.999 C 189.631 67.182 190.01 67.492 190.276 67.89 C 190.542 68.289 190.684 68.757 190.684 69.236 C 190.683 69.877 190.428 70.493 189.975 70.946 C 189.522 71.4 188.907 71.655 188.265 71.657 L 188.262 71.658 Z  M 211.854 71.8 C 206.653 71.799 201.569 70.256 197.244 67.366 C 192.92 64.476 189.549 60.368 187.559 55.563 C 185.569 50.757 185.049 45.469 186.064 40.368 C 187.079 35.267 189.584 30.581 193.262 26.903 C 196.94 23.225 201.626 20.721 206.728 19.706 C 211.829 18.692 217.117 19.213 221.922 21.203 C 226.728 23.194 230.835 26.565 233.725 30.89 C 236.614 35.215 238.157 40.299 238.157 45.5 C 238.149 52.473 235.375 59.158 230.445 64.088 C 225.515 69.019 218.83 71.792 211.857 71.8 L 211.854 71.8 Z  M 235.732 71.658 C 235.253 71.658 234.785 71.515 234.386 71.249 C 233.988 70.983 233.678 70.605 233.494 70.163 C 233.311 69.72 233.263 69.233 233.357 68.763 C 233.45 68.294 233.681 67.862 234.02 67.523 C 234.358 67.185 234.79 66.954 235.259 66.861 C 235.729 66.767 236.216 66.815 236.659 66.999 C 237.101 67.182 237.479 67.492 237.745 67.89 C 238.012 68.289 238.154 68.757 238.154 69.236 C 238.153 69.877 237.898 70.493 237.445 70.946 C 236.991 71.4 236.376 71.655 235.735 71.657 L 235.732 71.658 Z " fill="rgb(251,142,3)"/><path d=" M 221.428 34.213 L 223.915 33.623 C 224.236 33.542 224.533 33.386 224.78 33.166 C 225.028 32.947 225.219 32.671 225.337 32.362 C 225.455 32.061 225.498 31.736 225.463 31.415 C 225.427 31.094 225.313 30.786 225.132 30.519 C 222.161 26.225 215.444 22.835 209.773 24.868 C 208.953 25.172 208.213 25.658 207.607 26.288 C 207.002 26.918 206.546 27.678 206.276 28.509 C 205.068 32.122 205.569 36.514 207.653 41.022 C 208.716 40.09 210.064 39.546 211.477 39.481 C 212.889 39.416 214.282 39.833 215.426 40.664 C 215.999 39.32 216.704 38.035 217.529 36.828 C 218.468 35.512 219.854 34.583 221.429 34.216 L 221.428 34.213 Z " fill="rgb(255,255,255)"/><path d=" M 198.714 51.871 C 201.606 51.806 204.449 51.117 207.05 49.85 C 206.117 48.787 205.574 47.438 205.509 46.026 C 205.444 44.613 205.861 43.221 206.692 42.077 C 205.35 41.503 204.068 40.799 202.865 39.973 C 201.549 39.034 200.62 37.648 200.253 36.074 L 199.652 33.587 C 199.573 33.265 199.417 32.967 199.197 32.719 C 198.978 32.472 198.701 32.281 198.391 32.165 C 198.09 32.049 197.765 32.007 197.444 32.043 C 197.124 32.078 196.816 32.191 196.548 32.37 C 192.26 35.34 188.879 42.058 190.902 47.729 C 191.208 48.55 191.695 49.29 192.327 49.896 C 192.959 50.501 193.719 50.956 194.552 51.227 C 195.896 51.662 197.301 51.879 198.714 51.871 Z " fill="rgb(255,255,255)"/><path d=" M 211.767 51.994 C 210.452 51.993 209.172 51.577 208.108 50.804 C 207.533 52.145 206.829 53.427 206.005 54.632 C 205.064 55.948 203.679 56.879 202.105 57.253 L 199.618 57.843 C 199.297 57.923 199 58.079 198.753 58.299 C 198.505 58.518 198.314 58.794 198.196 59.104 C 198.082 59.406 198.042 59.731 198.079 60.051 C 198.116 60.372 198.23 60.679 198.41 60.946 C 199.769 62.817 201.537 64.353 203.579 65.437 C 205.621 66.522 207.883 67.126 210.194 67.203 C 211.412 67.208 212.622 67.005 213.771 66.602 C 214.589 66.295 215.328 65.807 215.931 65.175 C 216.535 64.543 216.989 63.784 217.259 62.953 C 218.467 59.347 217.974 54.956 215.891 50.439 C 214.751 51.441 213.286 51.994 211.768 51.996 L 211.767 51.994 Z " fill="rgb(255,255,255)"/><path d=" M 228.994 40.241 C 225.381 39.024 220.989 39.526 216.475 41.618 C 217.411 42.679 217.958 44.027 218.025 45.44 C 218.091 46.853 217.674 48.247 216.842 49.391 C 218.187 49.965 219.472 50.669 220.679 51.494 C 221.995 52.433 222.923 53.82 223.291 55.394 L 223.881 57.881 C 223.962 58.201 224.119 58.498 224.339 58.745 C 224.558 58.992 224.833 59.184 225.141 59.303 C 225.373 59.392 225.618 59.438 225.866 59.437 C 226.265 59.439 226.655 59.317 226.983 59.089 C 231.277 56.128 234.667 49.411 232.636 43.731 C 232.33 42.913 231.844 42.174 231.214 41.57 C 230.583 40.966 229.825 40.511 228.994 40.241 Z " fill="rgb(255,255,255)"/><path d=" M 211.806 49.712 C 214.019 49.712 215.812 47.919 215.812 45.706 C 215.812 43.494 214.019 41.7 211.806 41.7 C 209.594 41.7 207.8 43.494 207.8 45.706 C 207.8 47.919 209.594 49.712 211.806 49.712 Z " fill="rgb(255,255,255)"/></g></svg>