<?xml version="1.0" encoding="UTF-8" standalone="no"?>
<!-- Generator: Gravit.io -->
<svg xmlns="http://www.w3.org/2000/svg" xmlns:xlink="http://www.w3.org/1999/xlink" style="isolation:isolate" viewBox="0 0 50 50" width="50pt" height="50pt"><defs><clipPath id="_clipPath_2SqDLq8w2IMd8Y585EgGhmWr0otJ3uQF"><rect width="50" height="50"/></clipPath></defs><g clip-path="url(#_clipPath_2SqDLq8w2IMd8Y585EgGhmWr0otJ3uQF)"><rect width="50" height="50" style="fill:rgb(0,0,0)" fill-opacity="0"/><path d=" M 26.976 45.273 C 24.557 45.757 22.084 46 19.559 46 C 16.334 46 13.768 45.581 11.861 44.75 C 9.952 43.917 8.501 42.894 7.508 41.686 C 6.512 40.478 5.881 39.228 5.613 37.937 C 5.343 36.648 5.21 35.547 5.21 34.634 C 5.21 31.947 5.906 29.782 7.3 28.142 C 8.693 26.505 10.434 25.188 12.523 24.195 C 14.613 23.2 16.891 22.434 19.358 21.896 C 21.823 21.36 24.1 20.808 26.19 20.243 C 28.279 19.68 30.022 19.008 31.414 18.228 C 32.807 17.449 33.504 16.335 33.504 14.882 C 33.504 13.915 33.263 13.136 32.782 12.545 C 32.3 11.954 31.697 11.51 30.974 11.215 C 30.252 10.92 29.461 10.718 28.603 10.61 C 27.747 10.503 26.943 10.449 26.194 10.449 C 23.463 10.449 20.798 10.772 18.201 11.416 C 15.603 12.062 13.046 12.868 10.53 13.835 L 11.739 6.337 C 14.642 5.64 17.529 5.076 20.405 4.646 C 23.279 4.216 26.196 4 29.151 4 C 30.925 4 32.739 4.134 34.593 4.402 C 36.448 4.672 38.126 5.182 39.632 5.935 C 41.135 6.688 42.372 7.748 43.34 9.118 C 44.307 10.49 44.79 12.277 44.79 14.479 C 44.79 15.931 44.723 17.772 44.588 20.002 C 44.452 22.233 44.289 24.691 44.1 27.378 C 43.911 30.066 43.749 32.927 43.613 35.963 C 43.477 38.999 43.41 42.023 43.41 45.032 L 32.134 45.032 C 32.241 44.174 32.336 43.232 32.416 42.211 C 32.498 41.189 32.59 39.926 32.698 38.422 C 32.806 36.918 32.927 35.035 33.062 32.78 C 33.195 30.522 33.344 27.7 33.504 24.315 C 32.81 24.959 31.887 25.483 30.736 25.886 C 29.585 26.289 28.369 26.68 27.085 27.055 C 25.8 27.43 24.491 27.821 23.153 28.223 C 21.816 28.627 20.612 29.124 19.543 29.716 C 18.472 30.306 17.602 31.004 16.934 31.81 C 16.265 32.617 15.93 33.612 15.93 34.792 C 15.93 35.761 16.133 36.541 16.536 37.13 C 16.939 37.724 17.463 38.206 18.107 38.585 C 18.752 38.961 19.477 39.215 20.284 39.348 C 21.09 39.483 21.897 39.55 22.703 39.55 C 23.778 39.55 24.839 39.443 25.887 39.228 C 26.935 39.014 27.968 38.717 28.99 38.341 L 26.976 45.273 Z " fill="rgb(255,255,255)"/></g></svg>