<?xml version="1.0" encoding="UTF-8" standalone="no"?><svg xmlns="http://www.w3.org/2000/svg"  style="isolation:isolate" viewBox="101 14 62 62" width="62pt" height="62pt"><g><path d=" M 158.157 14 L 105.843 14 C 104.559 14 103.327 14.51 102.419 15.419 C 101.51 16.327 101 17.559 101 18.843 L 101 71.157 C 101 72.441 101.51 73.673 102.419 74.581 C 103.327 75.49 104.559 76 105.843 76 L 158.157 76 C 159.441 76 160.673 75.49 161.581 74.581 C 162.49 73.673 163 72.441 163 71.157 L 163 18.843 C 163 17.559 162.49 16.327 161.581 15.419 C 160.673 14.51 159.441 14 158.157 14 Z  M 155.735 18.844 C 156.214 18.844 156.682 18.986 157.08 19.253 C 157.479 19.519 157.789 19.897 157.972 20.339 C 158.155 20.782 158.203 21.269 158.11 21.739 C 158.017 22.208 157.786 22.64 157.447 22.979 C 157.109 23.317 156.677 23.548 156.207 23.641 C 155.738 23.735 155.251 23.687 154.808 23.503 C 154.366 23.32 153.987 23.01 153.721 22.612 C 153.455 22.213 153.313 21.745 153.313 21.266 C 153.313 20.624 153.569 20.008 154.023 19.554 C 154.477 19.1 155.093 18.845 155.735 18.844 Z  M 108.262 18.844 C 108.741 18.844 109.21 18.985 109.608 19.251 C 110.007 19.517 110.318 19.895 110.502 20.337 C 110.685 20.78 110.734 21.267 110.641 21.737 C 110.548 22.207 110.317 22.638 109.979 22.977 C 109.64 23.316 109.209 23.547 108.739 23.641 C 108.269 23.735 107.782 23.687 107.339 23.504 C 106.896 23.321 106.518 23.01 106.252 22.612 C 105.986 22.214 105.843 21.745 105.843 21.266 C 105.844 20.624 106.099 20.008 106.553 19.554 C 107.008 19.1 107.624 18.844 108.266 18.844 L 108.262 18.844 Z  M 108.262 71.158 C 107.783 71.158 107.315 71.015 106.917 70.749 C 106.518 70.483 106.208 70.105 106.025 69.663 C 105.841 69.22 105.794 68.733 105.887 68.263 C 105.98 67.794 106.211 67.362 106.55 67.023 C 106.888 66.685 107.32 66.454 107.79 66.361 C 108.259 66.267 108.746 66.315 109.189 66.499 C 109.631 66.682 110.01 66.992 110.276 67.39 C 110.542 67.789 110.684 68.257 110.684 68.736 C 110.683 69.377 110.428 69.993 109.975 70.446 C 109.522 70.9 108.907 71.155 108.265 71.157 L 108.262 71.158 Z  M 131.854 71.3 C 126.653 71.299 121.569 69.756 117.244 66.866 C 112.92 63.976 109.549 59.868 107.559 55.063 C 105.569 50.257 105.049 44.969 106.064 39.868 C 107.079 34.767 109.584 30.081 113.262 26.403 C 116.94 22.725 121.626 20.221 126.728 19.206 C 131.829 18.192 137.117 18.713 141.922 20.703 C 146.728 22.694 150.835 26.065 153.725 30.39 C 156.614 34.715 158.157 39.799 158.157 45 C 158.149 51.973 155.375 58.658 150.445 63.588 C 145.515 68.519 138.83 71.292 131.857 71.3 L 131.854 71.3 Z  M 155.732 71.158 C 155.253 71.158 154.785 71.015 154.386 70.749 C 153.988 70.483 153.678 70.105 153.494 69.663 C 153.311 69.22 153.263 68.733 153.357 68.263 C 153.45 67.794 153.681 67.362 154.02 67.023 C 154.358 66.685 154.79 66.454 155.259 66.361 C 155.729 66.267 156.216 66.315 156.659 66.499 C 157.101 66.682 157.479 66.992 157.745 67.39 C 158.012 67.789 158.154 68.257 158.154 68.736 C 158.153 69.377 157.898 69.993 157.445 70.446 C 156.991 70.9 156.376 71.155 155.735 71.157 L 155.732 71.158 Z " /><path d=" M 141.428 33.713 L 143.915 33.123 C 144.236 33.042 144.533 32.886 144.78 32.666 C 145.028 32.447 145.219 32.171 145.337 31.862 C 145.455 31.561 145.498 31.236 145.463 30.915 C 145.427 30.594 145.313 30.286 145.132 30.019 C 142.161 25.725 135.444 22.335 129.773 24.368 C 128.953 24.672 128.213 25.158 127.607 25.788 C 127.002 26.418 126.546 27.178 126.276 28.009 C 125.068 31.622 125.569 36.014 127.653 40.522 C 128.716 39.59 130.064 39.046 131.477 38.981 C 132.889 38.916 134.282 39.333 135.426 40.164 C 135.999 38.82 136.704 37.535 137.529 36.328 C 138.468 35.012 139.854 34.083 141.429 33.716 L 141.428 33.713 Z " /><path d=" M 118.714 51.371 C 121.606 51.306 124.449 50.617 127.05 49.35 C 126.117 48.287 125.574 46.938 125.509 45.526 C 125.444 44.113 125.861 42.721 126.692 41.577 C 125.35 41.003 124.068 40.299 122.865 39.473 C 121.549 38.534 120.62 37.148 120.253 35.574 L 119.652 33.087 C 119.573 32.765 119.417 32.467 119.197 32.219 C 118.978 31.972 118.701 31.781 118.391 31.665 C 118.09 31.549 117.765 31.507 117.444 31.543 C 117.124 31.578 116.816 31.691 116.548 31.87 C 112.26 34.84 108.879 41.558 110.902 47.229 C 111.208 48.05 111.695 48.79 112.327 49.396 C 112.959 50.001 113.719 50.456 114.552 50.727 C 115.896 51.162 117.301 51.379 118.714 51.371 Z " /><path d=" M 131.767 51.494 C 130.452 51.493 129.172 51.077 128.108 50.304 C 127.533 51.645 126.829 52.927 126.005 54.132 C 125.064 55.448 123.679 56.379 122.105 56.753 L 119.618 57.343 C 119.297 57.423 119 57.579 118.753 57.799 C 118.505 58.018 118.314 58.294 118.196 58.604 C 118.082 58.906 118.042 59.231 118.079 59.551 C 118.116 59.872 118.23 60.179 118.41 60.446 C 119.769 62.317 121.537 63.853 123.579 64.937 C 125.621 66.022 127.883 66.626 130.194 66.703 C 131.412 66.708 132.622 66.505 133.771 66.102 C 134.589 65.795 135.328 65.307 135.931 64.675 C 136.535 64.043 136.989 63.284 137.259 62.453 C 138.467 58.847 137.974 54.456 135.891 49.939 C 134.751 50.941 133.286 51.494 131.768 51.496 L 131.767 51.494 Z " /><path d=" M 148.994 39.741 C 145.381 38.524 140.989 39.026 136.475 41.118 C 137.411 42.179 137.958 43.527 138.025 44.94 C 138.091 46.353 137.674 47.747 136.842 48.891 C 138.187 49.465 139.472 50.169 140.679 50.994 C 141.995 51.933 142.923 53.32 143.291 54.894 L 143.881 57.381 C 143.962 57.701 144.119 57.998 144.339 58.245 C 144.558 58.492 144.833 58.684 145.141 58.803 C 145.373 58.892 145.618 58.938 145.866 58.937 C 146.265 58.939 146.655 58.817 146.983 58.589 C 151.277 55.628 154.667 48.911 152.636 43.231 C 152.33 42.413 151.844 41.674 151.214 41.07 C 150.583 40.466 149.825 40.011 148.994 39.741 Z " /><path d=" M 131.806 49.212 C 134.019 49.212 135.812 47.419 135.812 45.206 C 135.812 42.994 134.019 41.2 131.806 41.2 C 129.594 41.2 127.8 42.994 127.8 45.206 C 127.8 47.419 129.594 49.212 131.806 49.212 Z " /></g></svg>
