<?xml version="1.0" encoding="UTF-8" standalone="no"?><!-- Generator: Gravit.io --><svg xmlns="http://www.w3.org/2000/svg" xmlns:xlink="http://www.w3.org/1999/xlink" style="isolation:isolate" viewBox="0 0 55 55" width="55pt" height="55pt"><defs><clipPath id="_clipPath_YyCKYG6Qui8sJJn9Om9EZobQZWQIIqxo"><rect width="55" height="55"/></clipPath></defs><g clip-path="url(#_clipPath_YyCKYG6Qui8sJJn9Om9EZobQZWQIIqxo)"><g><path d=" M 37.621 15.427 L 40.227 14.809 C 40.563 14.725 40.874 14.561 41.134 14.331 C 41.393 14.101 41.593 13.811 41.717 13.487 C 41.841 13.172 41.886 12.832 41.849 12.495 C 41.811 12.159 41.692 11.836 41.502 11.556 C 38.389 7.057 31.349 3.504 25.407 5.634 C 24.548 5.953 23.772 6.461 23.137 7.122 C 22.502 7.783 22.025 8.578 21.742 9.45 C 20.476 13.237 21.001 17.839 23.185 22.563 C 24.299 21.586 25.712 21.016 27.192 20.948 C 28.672 20.88 30.132 21.318 31.331 22.188 C 31.932 20.779 32.67 19.432 33.535 18.167 C 34.519 16.788 35.972 15.815 37.622 15.43 L 37.621 15.427 Z " fill="rgb(255,255,255)"/><path d=" M 13.817 33.932 C 16.848 33.864 19.828 33.142 22.553 31.814 C 21.576 30.7 21.006 29.287 20.938 27.807 C 20.87 26.327 21.307 24.867 22.178 23.668 C 20.772 23.067 19.428 22.329 18.167 21.464 C 16.788 20.48 15.814 19.027 15.429 17.377 L 14.8 14.771 C 14.717 14.434 14.554 14.122 14.323 13.862 C 14.093 13.603 13.803 13.403 13.478 13.281 C 13.163 13.159 12.822 13.115 12.486 13.153 C 12.15 13.19 11.828 13.308 11.547 13.496 C 7.054 16.609 3.51 23.648 5.63 29.592 C 5.951 30.452 6.461 31.228 7.123 31.863 C 7.786 32.497 8.583 32.974 9.455 33.257 C 10.864 33.713 12.337 33.941 13.817 33.932 Z " fill="rgb(255,255,255)"/><path d=" M 27.496 34.061 C 26.119 34.06 24.777 33.624 23.662 32.814 C 23.059 34.22 22.321 35.563 21.458 36.826 C 20.472 38.205 19.02 39.18 17.371 39.573 L 14.765 40.191 C 14.428 40.275 14.117 40.439 13.858 40.669 C 13.598 40.899 13.398 41.188 13.274 41.512 C 13.155 41.829 13.112 42.169 13.152 42.505 C 13.191 42.841 13.31 43.163 13.499 43.443 C 14.923 45.404 16.775 47.014 18.915 48.15 C 21.055 49.286 23.426 49.919 25.847 50 C 27.124 50.005 28.392 49.792 29.597 49.37 C 30.454 49.048 31.228 48.537 31.861 47.875 C 32.493 47.213 32.969 46.417 33.252 45.546 C 34.518 41.767 34.002 37.166 31.818 32.432 C 30.623 33.482 29.088 34.061 27.497 34.063 L 27.496 34.061 Z " fill="rgb(255,255,255)"/><path d=" M 45.55 21.744 C 41.763 20.469 37.161 20.995 32.43 23.188 C 33.411 24.299 33.984 25.712 34.054 27.193 C 34.124 28.674 33.687 30.134 32.815 31.333 C 34.224 31.935 35.571 32.673 36.836 33.538 C 38.215 34.522 39.188 35.975 39.573 37.625 L 40.191 40.231 C 40.276 40.567 40.441 40.877 40.671 41.136 C 40.901 41.396 41.189 41.596 41.512 41.721 C 41.754 41.815 42.012 41.862 42.271 41.862 C 42.69 41.863 43.099 41.736 43.443 41.496 C 47.942 38.394 51.495 31.354 49.366 25.402 C 49.046 24.545 48.537 23.771 47.876 23.137 C 47.215 22.504 46.42 22.028 45.55 21.744 Z " fill="rgb(255,255,255)"/><path d=" M 27.537 31.67 C 29.856 31.67 31.736 29.791 31.736 27.472 C 31.736 25.153 29.856 23.274 27.537 23.274 C 25.219 23.274 23.339 25.153 23.339 27.472 C 23.339 29.791 25.219 31.67 27.537 31.67 Z " fill="rgb(255,255,255)"/></g><path d=" M 0 27.5 C 0 12.322 12.322 0 27.5 0 C 42.678 0 55 12.322 55 27.5 C 55 42.678 42.678 55 27.5 55 C 12.322 55 0 42.678 0 27.5 Z  M 1 27.5 C 1 20.47 3.79 13.73 8.76 8.76 C 13.73 3.79 20.47 1 27.5 1 C 34.53 1 41.27 3.79 46.24 8.76 C 51.21 13.73 54 20.47 54 27.5 L 54 27.5 C 54 34.53 51.21 41.27 46.24 46.24 C 41.27 51.21 34.53 54 27.5 54 L 27.5 54 C 20.47 54 13.73 51.21 8.76 46.24 C 3.79 41.27 1 34.53 1 27.5 Z " fill-rule="evenodd" fill="rgb(251,142,3)"/></g></svg>