<?xml version="1.0" encoding="UTF-8" standalone="no"?><!-- Generator: Gravit.io --><svg xmlns="http://www.w3.org/2000/svg" xmlns:xlink="http://www.w3.org/1999/xlink" style="isolation:isolate" viewBox="0 0 55 55" width="55pt" height="55pt"><defs><clipPath id="_clipPath_0ln2X7pCLMfUYM6R4Rz7tq1QIDekCdkM"><rect width="55" height="55"/></clipPath></defs><g clip-path="url(#_clipPath_0ln2X7pCLMfUYM6R4Rz7tq1QIDekCdkM)"><g><path d=" M 35.929 17.445 L 38.1 16.93 C 38.38 16.86 38.639 16.723 38.855 16.531 C 39.072 16.34 39.238 16.099 39.341 15.829 C 39.444 15.567 39.482 15.283 39.451 15.003 C 39.42 14.722 39.321 14.454 39.162 14.22 C 36.569 10.473 30.706 7.514 25.756 9.288 C 25.041 9.554 24.395 9.977 23.866 10.527 C 23.338 11.078 22.94 11.74 22.704 12.466 C 21.65 15.62 22.087 19.453 23.906 23.388 C 24.834 22.574 26.011 22.1 27.243 22.043 C 28.476 21.987 29.692 22.351 30.69 23.076 C 31.191 21.902 31.806 20.78 32.526 19.727 C 33.346 18.578 34.556 17.768 35.93 17.447 L 35.929 17.445 Z " fill="rgb(255,255,255)"/><path d=" M 16.104 32.857 C 18.628 32.801 21.11 32.199 23.38 31.093 C 22.566 30.165 22.091 28.989 22.035 27.756 C 21.978 26.523 22.342 25.307 23.067 24.309 C 21.896 23.808 20.777 23.193 19.726 22.473 C 18.578 21.653 17.767 20.443 17.447 19.069 L 16.922 16.898 C 16.853 16.617 16.717 16.358 16.525 16.141 C 16.334 15.925 16.092 15.759 15.821 15.657 C 15.559 15.556 15.275 15.519 14.995 15.551 C 14.715 15.582 14.447 15.68 14.213 15.836 C 10.47 18.429 7.519 24.292 9.285 29.243 C 9.552 29.959 9.977 30.605 10.528 31.134 C 11.08 31.662 11.744 32.059 12.471 32.295 C 13.644 32.675 14.871 32.865 16.104 32.857 Z " fill="rgb(255,255,255)"/><path d=" M 27.497 32.965 C 26.35 32.964 25.232 32.601 24.304 31.926 C 23.801 33.097 23.186 34.216 22.468 35.267 C 21.646 36.416 20.437 37.228 19.064 37.555 L 16.893 38.07 C 16.613 38.14 16.353 38.276 16.137 38.468 C 15.921 38.66 15.755 38.901 15.652 39.171 C 15.552 39.434 15.517 39.718 15.549 39.998 C 15.582 40.278 15.681 40.546 15.839 40.779 C 17.025 42.412 18.567 43.753 20.35 44.699 C 22.132 45.645 24.107 46.172 26.124 46.24 C 27.187 46.244 28.243 46.067 29.246 45.716 C 29.96 45.447 30.605 45.022 31.132 44.47 C 31.659 43.919 32.055 43.256 32.291 42.53 C 33.345 39.383 32.915 35.551 31.097 31.608 C 30.101 32.482 28.822 32.965 27.498 32.967 L 27.497 32.965 Z " fill="rgb(255,255,255)"/><path d=" M 42.534 22.706 C 39.38 21.644 35.546 22.082 31.606 23.908 C 32.424 24.834 32.901 26.011 32.959 27.244 C 33.017 28.478 32.653 29.694 31.926 30.693 C 33.1 31.193 34.222 31.808 35.275 32.529 C 36.424 33.348 37.235 34.558 37.555 35.933 L 38.07 38.103 C 38.141 38.383 38.278 38.642 38.47 38.858 C 38.661 39.073 38.902 39.24 39.171 39.345 C 39.372 39.422 39.587 39.462 39.803 39.462 C 40.152 39.463 40.492 39.357 40.778 39.158 C 44.526 36.573 47.485 30.71 45.712 25.753 C 45.446 25.039 45.021 24.394 44.471 23.866 C 43.921 23.339 43.258 22.942 42.534 22.706 Z " fill="rgb(255,255,255)"/><path d=" M 27.531 30.973 C 29.462 30.973 31.028 29.408 31.028 27.477 C 31.028 25.545 29.462 23.98 27.531 23.98 C 25.6 23.98 24.034 25.545 24.034 27.477 C 24.034 29.408 25.6 30.973 27.531 30.973 Z " fill="rgb(255,255,255)"/></g><path d=" M 0 27.5 C 0 12.322 12.322 0 27.5 0 C 42.678 0 55 12.322 55 27.5 C 55 42.678 42.678 55 27.5 55 C 12.322 55 0 42.678 0 27.5 Z  M 1 27.5 C 1 20.47 3.79 13.73 8.76 8.76 C 13.73 3.79 20.47 1 27.5 1 C 34.53 1 41.27 3.79 46.24 8.76 C 51.21 13.73 54 20.47 54 27.5 L 54 27.5 C 54 34.53 51.21 41.27 46.24 46.24 C 41.27 51.21 34.53 54 27.5 54 L 27.5 54 C 20.47 54 13.73 51.21 8.76 46.24 C 3.79 41.27 1 34.53 1 27.5 Z " fill-rule="evenodd" fill="rgb(255,255,255)"/></g></svg>