<?xml version="1.0" encoding="UTF-8" standalone="no"?><!-- Generator: Gravit.io --><svg xmlns="http://www.w3.org/2000/svg" xmlns:xlink="http://www.w3.org/1999/xlink" style="isolation:isolate" viewBox="0 0 80 80" width="80pt" height="80pt"><defs><clipPath id="_clipPath_fOeVzRe36W2KeXyhGiGJCUDNQMZy3qki"><rect width="80" height="80"/></clipPath></defs><g clip-path="url(#_clipPath_fOeVzRe36W2KeXyhGiGJCUDNQMZy3qki)"><path d=" M 12.77 39.838 C 12.77 24.809 24.972 12.608 40.001 12.608 C 55.029 12.608 67.231 24.809 67.231 39.838 C 67.231 54.867 55.029 67.069 40.001 67.069 C 24.972 67.069 12.77 54.867 12.77 39.838 Z " fill="none" vector-effect="non-scaling-stroke" stroke-width="2" stroke="rgb(251,142,3)" stroke-linejoin="miter" stroke-linecap="butt" stroke-miterlimit="4"/><path d=" M 67.231 35 L 72.769 35 L 72.769 44.677 L 67.231 44.677 L 67.231 35 Z " fill="rgb(250,142,2)"/><path d=" M 7.232 35 L 12.77 35 L 12.77 44.677 L 7.232 44.677 L 7.232 35 Z " fill="rgb(250,142,2)"/><mask id="_mask_EpYo172XW96Ey6g8DgxRbqCKVe85KAnT"><path d=" M 27.001 40 C 27.001 32.825 32.826 27 40.001 27 C 47.175 27 53.001 32.825 53.001 40 C 53.001 47.175 47.175 53 40.001 53 C 32.826 53 27.001 47.175 27.001 40 Z " fill="white" stroke="none"/></mask><path d=" M 27.001 40 C 27.001 32.825 32.826 27 40.001 27 C 47.175 27 53.001 32.825 53.001 40 C 53.001 47.175 47.175 53 40.001 53 C 32.826 53 27.001 47.175 27.001 40 Z " fill="none"/><path d=" M 27.001 40 C 27.001 32.825 32.826 27 40.001 27 C 47.175 27 53.001 32.825 53.001 40 C 53.001 47.175 47.175 53 40.001 53 C 32.826 53 27.001 47.175 27.001 40 Z " fill="none" mask="url(#_mask_EpYo172XW96Ey6g8DgxRbqCKVe85KAnT)" vector-effect="non-scaling-stroke" stroke-width="20" stroke="rgb(255,255,255)" stroke-linejoin="miter" stroke-linecap="butt" stroke-miterlimit="4"/></g></svg>