<svg width="80" height="80" viewBox="0 0 80 80" fill="none" xmlns="http://www.w3.org/2000/svg">
<g id="Icon">
<g id="100gbe">
<path id="Rectangle 2761" d="M69 25H11C6.58172 25 3 28.5817 3 33V47C3 51.4183 6.58172 55 11 55H69C73.4183 55 77 51.4183 77 47V33C77 28.5817 73.4183 25 69 25Z" stroke="#FB8E03" stroke-width="6"/>
<path id="Union 4" d="M61.1628 44.1752V35.8252C61.181 35.1917 61.4454 34.5903 61.8999 34.1487C62.3543 33.707 62.9631 33.46 63.5968 33.46C64.2305 33.46 64.8393 33.707 65.2938 34.1487C65.7483 34.5903 66.0127 35.1917 66.0308 35.8252V44.1752C66.0127 44.8086 65.7483 45.4101 65.2938 45.8517C64.8393 46.2933 64.2305 46.5404 63.5968 46.5404C62.9631 46.5404 62.3543 46.2933 61.8999 45.8517C61.4454 45.4101 61.181 44.8086 61.1628 44.1752ZM51.7218 44.1752V35.8252C51.74 35.1917 52.0044 34.5903 52.4589 34.1487C52.9133 33.707 53.5221 33.46 54.1558 33.46C54.7895 33.46 55.3983 33.707 55.8528 34.1487C56.3073 34.5903 56.5717 35.1917 56.5898 35.8252V44.1752C56.5717 44.8086 56.3073 45.4101 55.8528 45.8517C55.3983 46.2933 54.7895 46.5404 54.1558 46.5404C53.5221 46.5404 52.9133 46.2933 52.4589 45.8517C52.0044 45.4101 51.74 44.8086 51.7218 44.1752ZM42.2828 44.1752V35.8252C42.301 35.1917 42.5654 34.5903 43.0199 34.1487C43.4743 33.707 44.0831 33.46 44.7168 33.46C45.3505 33.46 45.9593 33.707 46.4138 34.1487C46.8683 34.5903 47.1327 35.1917 47.1508 35.8252V44.1752C47.1327 44.8086 46.8683 45.4101 46.4138 45.8517C45.9593 46.2933 45.3505 46.5404 44.7168 46.5404C44.0831 46.5404 43.4743 46.2933 43.0199 45.8517C42.5654 45.4101 42.301 44.8086 42.2828 44.1752ZM32.8438 44.1752V35.8252C32.862 35.1917 33.1264 34.5903 33.5809 34.1487C34.0353 33.707 34.6441 33.46 35.2778 33.46C35.9115 33.46 36.5203 33.707 36.9748 34.1487C37.4293 34.5903 37.6937 35.1917 37.7118 35.8252V44.1752C37.6937 44.8086 37.4293 45.4101 36.9748 45.8517C36.5203 46.2933 35.9115 46.5404 35.2778 46.5404C34.6441 46.5404 34.0353 46.2933 33.5809 45.8517C33.1264 45.4101 32.862 44.8086 32.8438 44.1752ZM23.4048 44.1752V35.8252C23.423 35.1917 23.6874 34.5903 24.1419 34.1487C24.5964 33.707 25.2051 33.46 25.8388 33.46C26.4725 33.46 27.0813 33.707 27.5358 34.1487C27.9903 34.5903 28.2547 35.1917 28.2728 35.8252V44.1752C28.2547 44.8086 27.9903 45.4101 27.5358 45.8517C27.0813 46.2933 26.4725 46.5404 25.8388 46.5404C25.2051 46.5404 24.5964 46.2933 24.1419 45.8517C23.6874 45.4101 23.423 44.8086 23.4048 44.1752ZM13.9658 44.1752V35.8252C13.984 35.1917 14.2484 34.5903 14.7029 34.1487C15.1573 33.707 15.7661 33.46 16.3998 33.46C17.0335 33.46 17.6423 33.707 18.0968 34.1487C18.5513 34.5903 18.8157 35.1917 18.8338 35.8252V44.1752C18.8157 44.8086 18.5513 45.4101 18.0968 45.8517C17.6423 46.2933 17.0335 46.5404 16.3998 46.5404C15.7661 46.5404 15.1573 46.2933 14.7029 45.8517C14.2484 45.4101 13.984 44.8086 13.9658 44.1752Z" fill="white"/>
</g>
</g>
</svg>
