<svg width="80" height="80" viewBox="0 0 80 80" fill="none" xmlns="http://www.w3.org/2000/svg">
<g id="Icon">
<g id="Layer_x0020_1">
<g id="Group 9175">
<path id="Path 993" fill-rule="evenodd" clip-rule="evenodd" d="M12.565 7.48438H67.436C68.7836 7.48438 70.0759 8.01969 71.0288 8.97257C71.9817 9.92544 72.517 11.2178 72.517 12.5654V67.4364C72.517 68.7839 71.9817 70.0763 71.0288 71.0292C70.0759 71.9821 68.7836 72.5174 67.436 72.5174H12.565C11.2174 72.5174 9.92507 71.9821 8.9722 71.0292C8.01933 70.0763 7.48401 68.7839 7.48401 67.4364V12.5654C7.48401 11.2178 8.01933 9.92544 8.9722 8.97257C9.92507 8.01969 11.2174 7.48438 12.565 7.48438ZM67.549 15.5124C67.5464 14.7008 67.2224 13.9232 66.6481 13.3498C66.0737 12.7763 65.2956 12.4537 64.484 12.4524H15.512C14.7012 12.4547 13.9242 12.7779 13.3509 13.3513C12.7775 13.9246 12.4544 14.7015 12.452 15.5124V47.8674C12.4544 48.6785 12.7776 49.4557 13.3512 50.0292C13.9247 50.6027 14.7019 50.926 15.513 50.9284H19.921V56.1934C19.9234 57.0047 20.247 57.7821 20.8209 58.3556C21.3949 58.929 22.1727 59.2518 22.984 59.2534H26.871V64.4844C26.8734 65.2955 27.1966 66.0727 27.7702 66.6462C28.3437 67.2197 29.1209 67.543 29.932 67.5454H50.377C51.1882 67.5433 51.9655 67.2201 52.5391 66.6465C53.1127 66.0729 53.4359 65.2956 53.438 64.4844V59.2534H57.325C58.1358 59.2505 58.9124 58.927 59.4855 58.3535C60.0587 57.78 60.3816 57.0031 60.384 56.1924V50.9284H64.484C65.2952 50.9263 66.0725 50.6031 66.6461 50.0295C67.2197 49.4559 67.5429 48.6786 67.545 47.8674V15.5124H67.549Z" fill="#FB8E03"/>
<path id="Union 4" d="M57.348 28.6825V20.6225C57.348 20.0979 57.5564 19.5948 57.9274 19.2239C58.2983 18.8529 58.8014 18.6445 59.326 18.6445C59.8506 18.6445 60.3537 18.8529 60.7247 19.2239C61.0956 19.5948 61.304 20.0979 61.304 20.6225V28.6825C61.304 29.2071 61.0956 29.7102 60.7247 30.0812C60.3537 30.4521 59.8506 30.6605 59.326 30.6605C58.8014 30.6605 58.2983 30.4521 57.9274 30.0812C57.5564 29.7102 57.348 29.2071 57.348 28.6825ZM49.678 28.6825V20.6225C49.678 20.0979 49.8864 19.5948 50.2574 19.2239C50.6283 18.8529 51.1314 18.6445 51.656 18.6445C52.1806 18.6445 52.6837 18.8529 53.0547 19.2239C53.4256 19.5948 53.634 20.0979 53.634 20.6225V28.6825C53.634 29.2071 53.4256 29.7102 53.0547 30.0812C52.6837 30.4521 52.1806 30.6605 51.656 30.6605C51.1314 30.6605 50.6283 30.4521 50.2574 30.0812C49.8864 29.7102 49.678 29.2071 49.678 28.6825ZM42.008 28.6825V20.6225C42.008 20.0979 42.2164 19.5948 42.5874 19.2239C42.9583 18.8529 43.4614 18.6445 43.986 18.6445C44.5106 18.6445 45.0137 18.8529 45.3847 19.2239C45.7556 19.5948 45.964 20.0979 45.964 20.6225V28.6825C45.964 29.2071 45.7556 29.7102 45.3847 30.0812C45.0137 30.4521 44.5106 30.6605 43.986 30.6605C43.4614 30.6605 42.9583 30.4521 42.5874 30.0812C42.2164 29.7102 42.008 29.2071 42.008 28.6825ZM34.339 28.6825V20.6225C34.339 20.0979 34.5474 19.5948 34.9184 19.2239C35.2893 18.8529 35.7924 18.6445 36.317 18.6445C36.8416 18.6445 37.3447 18.8529 37.7157 19.2239C38.0866 19.5948 38.295 20.0979 38.295 20.6225V28.6825C38.295 29.2071 38.0866 29.7102 37.7157 30.0812C37.3447 30.4521 36.8416 30.6605 36.317 30.6605C35.7924 30.6605 35.2893 30.4521 34.9184 30.0812C34.5474 29.7102 34.339 29.2071 34.339 28.6825ZM26.669 28.6825V20.6225C26.669 20.0979 26.8774 19.5948 27.2484 19.2239C27.6193 18.8529 28.1224 18.6445 28.647 18.6445C29.1716 18.6445 29.6747 18.8529 30.0457 19.2239C30.4166 19.5948 30.625 20.0979 30.625 20.6225V28.6825C30.625 29.2071 30.4166 29.7102 30.0457 30.0812C29.6747 30.4521 29.1716 30.6605 28.647 30.6605C28.1224 30.6605 27.6193 30.4521 27.2484 30.0812C26.8774 29.7102 26.669 29.2071 26.669 28.6825ZM18.999 28.6825V20.6225C18.999 20.0979 19.2074 19.5948 19.5784 19.2239C19.9493 18.8529 20.4524 18.6445 20.977 18.6445C21.5016 18.6445 22.0047 18.8529 22.3757 19.2239C22.7466 19.5948 22.955 20.0979 22.955 20.6225V28.6825C22.955 29.2071 22.7466 29.7102 22.3757 30.0812C22.0047 30.4521 21.5016 30.6605 20.977 30.6605C20.4524 30.6605 19.9493 30.4521 19.5784 30.0812C19.2074 29.7102 18.999 29.2071 18.999 28.6825Z" fill="white"/>
</g>
</g>
</g>
</svg>
