<?xml version="1.0" encoding="UTF-8" standalone="no"?><!-- Generator: Gravit.io --><svg xmlns="http://www.w3.org/2000/svg" xmlns:xlink="http://www.w3.org/1999/xlink" style="isolation:isolate" viewBox="0 0 80 80" width="80pt" height="80pt"><defs><clipPath id="_clipPath_B0JjNU9aRHOkZIHV60wdSpqp5p8kAJoM"><rect width="80" height="80"/></clipPath></defs><g clip-path="url(#_clipPath_B0JjNU9aRHOkZIHV60wdSpqp5p8kAJoM)"><g><path d=" M 58.779 31.548 L 21.221 31.548 C 16.553 31.548 12.769 35.332 12.769 40 C 12.769 44.668 16.553 48.452 21.221 48.452 L 58.779 48.452 C 63.447 48.452 67.231 44.668 67.231 40 C 67.231 35.332 63.447 31.548 58.779 31.548 Z " fill="none" vector-effect="non-scaling-stroke" stroke-width="2" stroke="rgb(251,142,3)" stroke-linejoin="miter" stroke-linecap="butt" stroke-miterlimit="4"/><path d=" M 22.928 37.799 L 57.074 37.799 C 57.682 37.738 58.29 37.918 58.768 38.299 C 59.246 38.68 59.556 39.232 59.633 39.838 C 59.556 40.445 59.246 40.997 58.768 41.378 C 58.29 41.759 57.682 41.938 57.074 41.878 L 22.928 41.878 C 22.319 41.938 21.712 41.759 21.234 41.378 C 20.755 40.997 20.445 40.445 20.368 39.838 C 20.445 39.232 20.755 38.68 21.234 38.299 C 21.712 37.918 22.319 37.738 22.928 37.799 Z " fill-rule="evenodd" fill="rgb(255,255,255)"/></g></g></svg>